
<svg width="100px" height="100px" viewBox="0 0 100 100" version="1.1" xmlns="http://www.w3.org/2000/svg" xmlns:xlink="http://www.w3.org/1999/xlink">
    <!-- Generator: Sketch 46.2 (44496) - http://www.bohemiancoding.com/sketch -->
    <desc>Created with Sketch.</desc>
    <defs>
        <linearGradient x1="0%" y1="0%" x2="100%" y2="88.1651035%" id="linearGradient-1">
            <stop stop-color="#F9C93D" offset="0%"></stop>
            <stop stop-color="#FD981A" offset="100%"></stop>
        </linearGradient>
        <path d="M97.6343026,70.4924983 C98.5940044,66.9033887 99.2179491,63.0787599 99.5792294,58.9076173 C99.8182578,56.1236393 99.9508989,53.2118703 100,50.0000026 C99.9508989,46.788135 99.8182578,43.8763665 99.5792732,41.0928964 C99.2179272,36.9209918 98.5939686,33.0962047 97.6342822,29.507431 C96.6234766,25.7254494 95.2311753,22.1820426 93.3323997,18.90598 C91.907127,16.4297469 90.1607163,14.0742099 88.0431608,11.9567858 C85.926131,9.83949299 83.5708323,8.09336019 81.0922544,6.6667344 C77.8178544,4.76891883 74.2742669,3.3764584 70.4926442,2.3657021 C66.9042295,1.40614889 63.0799523,0.782310458 58.9076155,0.420776713 C56.1202804,0.181447983 53.2048645,0.0487967222 49.9898296,0 C46.795413,0.0487947357 43.8800928,0.181441637 41.0930728,0.420731025 C36.9203332,0.782299466 33.096135,1.40613103 29.5074471,2.36572009 C25.7259497,3.37648948 22.1824076,4.76894656 18.9062651,6.66776839 C16.4294819,8.09325513 14.0740938,9.83942682 11.9569679,11.9568157 C9.83955544,14.0742282 8.09313935,16.4298223 6.66687622,18.9077699 C4.76911102,22.1818525 3.37696365,25.7249613 2.36599748,29.5075435 C1.40617298,33.0963134 0.782202764,36.9211722 0.421080403,41.092388 C0.181839729,43.8788382 0.0491519827,46.7934732 0,50.010397 C0.0491519827,53.2065321 0.181839729,56.1211671 0.421038854,58.9071354 C0.782180825,63.0785797 1.40613723,66.90328 2.36602353,70.4925592 C3.37702588,74.2749282 4.76916646,77.817946 6.66793119,81.0937596 C8.09292951,83.5698723 9.83942306,85.9256447 11.9569679,88.0431896 C14.0743473,90.1605689 16.4302273,91.9071792 18.9080553,93.3332709 C22.1820931,95.2308765 25.7251828,96.6230084 29.5075556,97.6340118 C33.0963526,98.5939083 36.9206945,99.2177633 41.0925402,99.5789259 C43.8760504,99.8179142 46.7872923,99.9505701 50.0001546,99.9998472 C53.2129859,99.9505681 56.1243221,99.8179079 58.9071387,99.5789673 C63.0795908,99.2177523 66.9040118,98.5938904 70.492719,97.6339808 C74.2750337,96.6230396 77.8181689,95.2309042 81.0940264,93.3322475 C83.5700867,91.9070743 85.9258775,90.1605027 88.0432056,88.0431747 C90.1608487,85.9256631 91.9073369,83.5699477 93.3334231,81.091951 C95.2311198,77.817756 96.6234144,74.27444 97.6342863,70.4925592 L98.2915846,70.6682508 L97.6343026,70.4924983 Z" id="path-2"></path>
    </defs>
    <g id="大梦想小程序商店--手机版" stroke="none" stroke-width="1" fill="none" fill-rule="evenodd">
        <g id="home-长list" transform="translate(-43.000000, -492.000000)">
            <g id="Group-4" transform="translate(43.000000, 492.000000)">
                <g id="Oval-9">
                    <mask id="mask-3" fill="white">
                        <use xlink:href="#path-2"></use>
                    </mask>
                    <use id="Mask" fill="url(#linearGradient-1)" fill-rule="nonzero" xlink:href="#path-2"></use>
                    <path d="M59.9999937,40 L59.9999937,35 C59.9999937,34.4477153 59.5522784,34 58.9999937,34 L58.9999937,34 L39,34 C38.4477153,34 38,34.4477153 38,35 L38,53 L38,53 C38,53.5522847 38.4477153,54 39,54 L39,54 L47,54 L47,59 L47,59 C47,59.5522847 47.4477153,60 48,60 L48,60 L67.9999937,60 C68.5522784,60 68.9999937,59.5522847 68.9999937,59 L68.9999937,41 C68.9999937,40.4477153 68.5522784,40 67.9999937,40 L59.9999937,40 Z M34,31 L34,31 C35.1045695,31 36,31.8954305 36,33 L36,67 C36,68.1045695 35.1045695,69 34,69 C32.8954305,69 32,68.1045695 32,67 L32,33 L32,33 C32,31.8954305 32.8954305,31 34,31 L34,31 Z" id="Combined-Shape" fill="#FFFFFF" mask="url(#mask-3)"></path>
                </g>
            </g>
        </g>
    </g>
</svg>